<svg width="62" height="53" viewBox="0 0 62 53" fill="none" xmlns="http://www.w3.org/2000/svg">
<path d="M30.8458 53C15.135 52.0225 7.57435 42.2405 5.75788 37.4717C5.75788 37.4717 16.6567 28.2565 7.04312 8.04419C20.4096 8.5024 31 0 31 0C42.4643 9.01153 55.1111 8.04419 55.1111 8.04419C45.6003 28.2565 56.2421 37.5735 56.2421 37.5735C50.1552 49.9147 36.775 53 30.8458 53Z" fill="#440A00"/>
<path d="M30.8458 3.05476C20.6153 10.1825 10.8474 10.3353 10.8474 10.3353C10.8474 10.3353 18.3532 25.609 8.94527 37.4717C15.9884 49.4361 31 49.8434 31 49.8434C47.0398 48.7234 52.9005 37.4717 52.9005 37.4717C43.5439 25.7618 50.8955 10.3862 50.8955 10.3862C39.1227 9.41883 30.8458 3.05476 30.8458 3.05476Z" fill="#A16D45"/>
<path d="M30.9486 4.07301C22.466 10.1316 12.2355 11.0989 12.2355 11.0989C18.7131 27.7474 10.1791 37.4717 10.1791 37.4717C16.9652 48.6724 31.3085 48.8761 31.3085 48.8761C46.5771 47.9088 51.7695 37.4717 51.7695 37.4717C43.2869 27.9001 49.6103 11.0989 49.6103 11.0989C40.8192 10.5898 30.9486 4.07301 30.9486 4.07301Z" fill="#CD9C73"/>
<path fill-rule="evenodd" clip-rule="evenodd" d="M20.3276 38.7651C20.2502 38.8417 20.2252 43.6257 20.3018 43.7016C20.3271 43.7267 20.5337 43.7296 20.7609 43.7083L21.1739 43.6693L21.2325 41.7043L21.6952 41.6534C22.4352 41.572 22.4137 40.906 21.6695 40.8587L21.1811 40.8276V39.5248L22.4663 39.4642V38.7514L21.4329 38.7226C20.8646 38.7068 20.3672 38.7259 20.3276 38.7651ZM22.929 43.6899H25.191V43.3928C25.191 42.8588 25.1392 42.8217 24.4447 42.8575L23.803 42.8906L23.8314 41.6025L24.8826 41.5409V40.737L23.803 40.7374V39.566L25.1396 39.4642V38.7514L22.929 38.6936V43.6899ZM25.7051 43.6899H26.6305V42.6813C26.6305 41.6859 26.6336 41.6733 26.8619 41.7304C27.2052 41.8163 27.2441 41.9299 27.2459 42.8499L27.2474 43.6899H28.1728V42.8459C28.1728 42.2103 28.1234 41.9059 27.9724 41.6126C27.794 41.2663 27.7884 41.1985 27.9203 40.999C28.6897 39.8361 28.0412 38.7005 26.6076 38.7005H25.7051V43.6899ZM28.7555 38.7684C28.7177 38.8057 28.6869 39.9234 28.6869 41.2522C28.6869 43.8626 28.6734 43.8047 29.2524 43.6956L29.5609 43.6375L29.5905 42.6963C29.6209 41.7261 29.6562 41.6611 30.0665 41.8171C30.1943 41.8656 30.2292 42.0384 30.2292 42.6233C30.2292 43.6125 30.2673 43.6899 30.7543 43.6899H31.1546V42.795C31.1546 42.1243 31.1068 41.8073 30.9637 41.5294C30.7909 41.1937 30.788 41.1437 30.9331 41C31.3505 40.5866 31.1528 39.0739 30.6461 38.8054C30.4289 38.6902 28.8653 38.6597 28.7555 38.7684ZM31.7563 38.726C31.6974 38.8242 31.7185 43.6497 31.778 43.6899C31.8193 43.7179 32.3205 43.7264 32.8919 43.7087L33.9307 43.6764V42.8753H32.5843L32.6454 41.6025L33.1393 41.5713C33.6749 41.5373 33.79 41.4145 33.6828 40.9914C33.6248 40.7627 33.5666 40.737 33.1062 40.737H32.594V39.5151H33.9307V38.7005H32.8511C32.2573 38.7005 31.7646 38.712 31.7563 38.726ZM34.5151 38.7769C34.4905 38.8189 34.4646 39.9415 34.4575 41.2716L34.4446 43.6899H35.3702V38.7005H34.9649C34.742 38.7005 34.5397 38.7348 34.5151 38.7769ZM35.9871 43.6676L36.3357 43.708C36.899 43.7731 36.9124 43.7499 36.9124 42.7141C36.9124 41.7674 36.9156 41.7553 37.1615 41.7553C37.4574 41.7553 37.6634 42.2414 37.6264 42.8519C37.5772 43.6651 37.5903 43.6899 38.0692 43.69H38.5061L38.4694 42.7481C38.4484 42.2043 38.3711 41.6878 38.2869 41.5261C38.1597 41.2821 38.1612 41.2075 38.2978 40.9457C38.9436 39.7091 38.3259 38.7005 36.9226 38.7005H35.9871V43.6676ZM39.6377 38.8227C39.5924 38.9462 39.0626 42.1442 38.9135 43.1933C38.8474 43.6586 38.8502 43.6645 39.1623 43.7099C39.5684 43.7689 39.6259 43.7222 39.7446 43.238C39.9048 42.5838 40.7168 42.6686 40.7168 43.3396C40.7168 43.5463 40.7695 43.6943 40.8453 43.7007C41.052 43.718 41.5874 43.6736 41.627 43.6358C41.6596 43.6046 41.3136 41.3292 40.9928 39.4642L40.8702 38.7514L40.2781 38.7209C39.8627 38.6994 39.6716 38.7298 39.6377 38.8227ZM27.185 39.6762C27.3851 40.1926 27.2137 40.8388 26.8766 40.8388C26.6422 40.8388 26.6305 40.8072 26.6305 40.177C26.6305 39.5052 26.9922 39.1786 27.185 39.6762ZM30.1778 40.177C30.1778 40.7677 30.1684 40.7889 29.895 40.8201L29.6123 40.8524V39.5016L29.895 39.5338C30.1684 39.565 30.1778 39.5862 30.1778 40.177ZM37.535 39.9896C37.6128 40.5665 37.4967 40.8388 37.1728 40.8388C36.9207 40.8388 36.9124 40.8177 36.9124 40.1702V39.5016L37.1952 39.5338C37.442 39.5619 37.4852 39.6199 37.535 39.9896ZM40.4477 41.9782C40.3813 42.0846 39.945 42.0145 39.9478 41.8978C39.9543 41.6132 40.1218 40.4937 40.1795 40.3482C40.2188 40.2493 40.3002 40.5404 40.3724 41.0378C40.4411 41.5112 40.475 41.9344 40.4477 41.9782Z" fill="#430800"/>
<path fill-rule="evenodd" clip-rule="evenodd" d="M18.7689 12.0958C18.6403 12.1889 18.6016 12.3 18.6476 12.4438C18.7434 12.7425 18.4177 12.723 17.656 12.3844L17.0475 12.114L16.5773 12.3466C16.1973 12.5345 16.001 12.5682 15.5535 12.5225C14.9538 12.4612 14.8517 12.5419 15.257 12.7567C15.6065 12.9419 15.6153 13.3677 15.2695 13.3677C14.9622 13.3677 14.7685 13.5917 14.8121 13.8967C14.8603 14.2336 15.3713 14.2391 15.3353 13.9023C15.3219 13.7762 15.3565 13.6731 15.4124 13.6731C15.5565 13.6731 15.539 14.6259 15.3924 14.7711C15.3255 14.8374 15.2907 14.9039 15.3153 14.9188C16.0263 15.3521 16.1552 15.365 16.5112 15.0373C17.5331 14.097 18.1873 14.2438 18.1873 15.4131C18.1873 16.4452 17.8471 16.691 17.0721 16.2188C16.285 15.7391 15.1458 15.9273 14.8959 16.5784C14.7195 17.0378 15.1956 17.4393 15.5607 17.1392C15.7526 16.9814 15.6498 16.7279 15.3941 16.7279C15.2837 16.7279 15.222 16.6821 15.257 16.6261C15.3762 16.435 15.8471 16.5238 16.4475 16.8507L17.0472 17.1773L17.4269 16.9979C18.5094 16.4867 19.0099 15.8047 19.0099 14.8407C19.0099 13.4946 18.2573 13.0924 17.4296 13.9959C16.856 14.6223 16.7674 14.5776 16.7375 13.6468C16.71 12.7904 16.7332 12.7692 17.373 13.0661L17.8948 13.308L18.3401 13.0741C19.1265 12.661 19.3857 12.3105 19.0867 12.0648C18.9961 11.9903 18.9019 11.9995 18.7689 12.0958ZM45.1462 12.4238C44.638 12.6758 44.5718 12.6851 44.1694 12.5617C43.266 12.2846 42.5968 12.468 42.9545 12.8949C43.1256 13.0991 43.4024 12.9933 43.3255 12.7531C43.2854 12.6281 43.3155 12.577 43.4203 12.5922C43.7206 12.6359 43.9744 12.9787 44.0433 13.434C44.0817 13.6876 44.1305 13.9841 44.1515 14.0929C44.1894 14.2871 44.1852 14.2872 43.9126 14.0992C43.1156 13.5495 41.9332 14.0752 42.5631 14.6989C42.8085 14.942 42.8841 14.9431 43.1773 14.7079C43.4427 14.4951 43.3755 14.2876 43.0378 14.2772L42.8125 14.2704L43.0417 14.1608C43.4601 13.9608 44.1713 14.5865 44.2723 15.2432C44.3112 15.4971 44.2953 15.5327 44.1886 15.4296C43.8661 15.1185 42.8809 15.4126 43.154 15.7386C43.3616 15.9863 43.6865 16.0287 43.6865 15.8079C43.6865 15.4839 43.8628 15.4931 44.1508 15.8319C44.6798 16.4546 44.2831 17.5425 43.5269 17.5425C43.1414 17.5425 42.9374 17.3434 42.9845 17.0135C43.0298 16.6978 43.3353 16.6992 43.3008 17.0151C43.2798 17.2074 43.318 17.2452 43.5065 17.2187C43.8232 17.1741 43.8873 16.6851 43.5965 16.5311C43.3131 16.3809 42.9851 16.5262 42.5822 16.9804C42.1924 17.4201 42.2562 17.7346 42.7368 17.7422C42.8915 17.7445 43.2726 17.7724 43.5837 17.8041C44.7803 17.926 45.5784 16.9979 45.6037 15.4551C45.612 14.9511 45.6235 14.4991 45.6294 14.4506C45.6352 14.4021 45.7541 14.4365 45.8935 14.527C46.2351 14.7486 46.386 14.7344 46.6504 14.4558C46.9338 14.1569 46.9346 14.0409 46.6525 14.1141C46.5308 14.1456 46.302 14.1053 46.1443 14.0244C45.9626 13.9315 45.8342 13.9148 45.7941 13.979C45.632 14.2387 45.4597 14.0527 45.4001 13.5537C45.3383 13.0374 45.2018 12.7563 45.0956 12.9266C45.0662 12.9738 45.0871 13.2574 45.142 13.5569C45.23 14.0366 45.2061 14.3015 45.0861 14.1738C44.475 13.5232 45.1331 12.458 45.8773 12.8932L46.2933 13.1365L46.6821 12.8703C47.0422 12.6237 47.1596 12.3653 46.8837 12.4268C46.8183 12.4414 46.6298 12.3841 46.4646 12.2995C46.0471 12.0857 45.7765 12.1113 45.1462 12.4238ZM16.5615 14.46C16.6911 14.6144 16.6098 14.7448 16.4463 14.6447C16.3788 14.6034 16.3446 14.2166 16.3572 13.6417L16.3779 12.7058L16.4134 13.5156C16.4328 13.961 16.4995 14.3859 16.5615 14.46ZM45.3301 15.4805C45.3291 15.8586 45.2945 16.2208 45.2529 16.2855C45.2114 16.35 45.1774 16.0408 45.1774 15.5982C45.1774 15.1554 45.212 14.7932 45.2545 14.7932C45.297 14.7932 45.3309 15.1025 45.3301 15.4805Z" fill="#00000A"/>
<path d="M0 12.7281L3.54726 22.6561V22.8598L0 28.0019C1.64511 28.3583 5.3466 29.3257 6.99171 29.8857V19.7032L10.0763 15.8847C7.71144 15.8847 2.21061 14.001 0 12.7281Z" fill="#490600"/>
<path d="M10.3847 17.2594L7.71144 20.1614C8.12272 20.416 10.3847 20.9251 10.796 20.976C10.8988 20.6705 10.7446 18.6849 10.7446 18.6849C10.6932 18.2776 10.3847 17.2594 10.3847 17.2594Z" fill="#490600"/>
<path d="M51.6667 17.5139C51.1526 18.2776 51.1012 20.976 51.1012 20.976L53.9801 20.1105L51.6667 17.5139Z" fill="#490600"/>
<path d="M62 12.7791C60.3035 14.3064 51.8209 15.9866 51.8209 15.9866L55.1111 19.7032V29.7839L62 27.951L58.5041 22.9107V22.5034L62 12.7791Z" fill="#490600"/>
<path d="M7.71144 34.2133V20.8233C14.2405 22.5543 22.6716 24.6417 31.4113 24.6417C33.8789 24.489 47.0912 24.0817 54.1857 20.7214V34.2642C54.1857 34.2642 42.67 38.3372 31.4113 38.0317C18.1476 37.6753 10.8474 35.0788 7.71144 34.2133Z" fill="#930F00"/>
<path fill-rule="evenodd" clip-rule="evenodd" d="M12.018 25.9412C12.2615 26.0134 12.6227 26.2239 12.8208 26.4089L13.1809 26.7453L13.1229 27.5052C13.0477 28.4884 13.0617 28.4743 12.3248 28.3219C11.5324 28.1582 11.558 28.1981 11.7376 27.4049L11.8902 26.7314L11.6405 26.5695C11.2472 26.3142 10.1756 29.2817 10.1702 30.6414C10.1673 31.3744 10.9212 31.0168 11.0958 30.2024C11.2555 29.4569 11.2218 29.4787 11.9561 29.6477C12.7213 29.8238 12.689 29.7622 12.487 30.6618C12.173 32.0587 10.184 32.2574 8.93146 31.0169C8.63565 30.724 9.11983 27.949 9.75556 26.2932C9.96418 25.7499 10.8885 25.606 12.018 25.9412ZM51.8753 25.9795C52.4955 26.382 52.6773 27.4113 52.1524 27.5476C51.1472 27.8087 51.2438 27.84 51.0289 27.1846C50.7249 26.2575 49.8682 26.3089 50.1491 27.2375C50.3092 27.7665 50.5891 27.9945 51.6057 28.4243C54.2651 29.5485 53.158 32.5726 50.3879 31.7507C49.7496 31.5613 49.0414 30.3701 49.3722 30.0425C49.4356 29.9797 50.7001 29.6804 50.7319 29.7206C50.744 29.7359 50.8183 30.0232 50.897 30.3592C51.13 31.3536 51.9175 31.2627 51.7655 30.259C51.6877 29.745 51.4091 29.5293 50.2283 29.0684C49.1301 28.6398 48.4845 27.6129 48.7862 26.7743C49.0661 25.9958 51.0956 25.4737 51.8753 25.9795ZM15.4463 26.8463C15.4734 26.8743 15.4118 27.3325 15.3093 27.8645C15.1097 28.9004 15.1162 28.9353 15.5306 29.0365C15.8758 29.1209 15.8811 29.1106 16.0822 27.9626C16.284 26.8116 16.1722 26.9293 16.9367 27.0625C17.7099 27.1975 17.688 26.8956 17.1607 30.1474C16.6831 33.0929 16.8079 32.8177 16.016 32.6718C15.2017 32.5219 15.2397 32.6304 15.5024 31.2079C15.7457 29.891 15.7362 29.8356 15.2603 29.7825L14.9531 29.7483L14.709 31.0466C14.4363 32.4967 14.4982 32.4322 13.5676 32.2346C13.2661 32.1705 13.0484 32.0686 13.0484 31.9915C13.0484 31.8481 14.0545 26.8684 14.1207 26.6838C14.1596 26.5756 15.3218 26.7182 15.4463 26.8463ZM47.0664 26.7508C47.8119 26.9091 48.711 29.425 48.7246 31.3908C48.7335 32.7048 45.3995 33.1821 45.0469 31.9174C44.0048 28.1787 44.3304 26.9875 46.4854 26.6538C46.525 26.6476 46.7864 26.6913 47.0664 26.7508ZM19.7164 27.5099C19.7673 27.5604 19.2541 31.8164 19.1561 32.1559C19.102 32.3435 19.3634 32.6503 19.5775 32.6503C19.9031 32.6503 20.0085 32.3379 20.184 30.8529C20.2823 30.0214 20.4128 28.9572 20.4738 28.4882L20.585 27.6354L21.2437 27.6878C21.606 27.7166 21.9168 27.7567 21.9343 27.7769C21.9952 27.8469 21.471 32.4986 21.3772 32.7218C21.0044 33.6083 18.5421 33.4808 17.8528 32.5393C17.6638 32.2811 17.8264 30.6892 18.3498 27.6726L18.4095 27.3279L19.0366 27.3928C19.3815 27.4285 19.6874 27.4812 19.7164 27.5099ZM43.0168 27.5001C43.7035 27.7843 44.1056 29.3165 43.5219 29.425C42.4177 29.6303 42.4712 29.6402 42.4063 29.2174C42.2529 28.2174 42.2109 28.1206 41.9143 28.0868C41.4877 28.0382 41.6058 31.6167 42.0591 32.4721C42.3769 33.072 42.8032 32.533 42.7131 31.6452L42.6417 30.941L43.1908 30.8718C43.4929 30.8338 43.8127 30.7826 43.9015 30.7581C44.1543 30.6883 44.3452 32.0536 44.1481 32.5209C43.76 33.4405 41.2922 33.6786 40.6973 32.854C40.4289 32.482 40.0158 28.5931 40.1983 28.1568C40.4669 27.5145 42.1205 27.1292 43.0168 27.5001ZM45.8691 27.5845C45.7939 27.6742 45.8656 28.2839 46.1112 29.6465C46.3031 30.7105 46.4611 31.6376 46.4624 31.7065C46.4662 31.9159 46.9747 31.9853 47.1602 31.8016C47.3408 31.6226 47.3594 31.7771 46.8066 28.8573C46.5304 27.3984 46.294 27.0775 45.8691 27.5845ZM25.5763 28.1108C26.4299 28.548 26.4796 30.5679 25.642 30.7761C25.3383 30.8516 25.3105 30.9776 25.5819 31.0479C25.9823 31.1515 26.0795 31.5064 26.0283 32.6758L25.9803 33.7704H25.6979C25.5425 33.7704 25.2021 33.7415 24.9414 33.706L24.4673 33.6417L24.5193 33.0187C24.5479 32.6761 24.591 32.2074 24.6152 31.9771C24.6658 31.4956 24.5289 31.2643 24.1385 31.1712C23.8679 31.1066 23.8668 31.1089 23.8009 31.8529C23.7645 32.2635 23.708 32.8221 23.6755 33.0943L23.6164 33.589L22.9632 33.5479C22.604 33.5252 22.2802 33.477 22.2436 33.4409C22.1581 33.3562 22.5931 28.8027 22.7149 28.5063C22.9895 27.8384 24.6076 27.6147 25.5763 28.1108ZM38.7544 27.9699C39.0808 28.1367 39.2719 28.462 39.3784 29.033C39.5119 29.7477 39.4648 29.7954 38.6247 29.7977L38.0335 29.7992V29.3637C38.0335 28.6492 37.5527 28.2203 37.2101 28.6292C36.8 29.1187 37.222 29.809 38.3934 30.5646C40.5788 31.9745 40.1398 33.7713 37.6103 33.77C36.3983 33.7694 35.8743 33.2968 35.8743 32.204V31.7513L36.5683 31.7139C36.95 31.6934 37.2718 31.6797 37.2834 31.6836C37.2949 31.6873 37.3411 31.9866 37.3862 32.3486C37.475 33.0625 37.8799 33.3391 38.2005 32.9049C38.5773 32.3944 38.164 31.762 36.934 30.9668C35.8436 30.2619 35.4331 29.2919 35.8774 28.4699C36.1747 27.9197 38.0263 27.5979 38.7544 27.9699ZM29.889 28.2708C30.7658 28.665 30.9412 30.3564 30.1579 30.8664L29.8482 31.0683L30.4763 31.487L30.5342 33.8722H29.0882V32.7725C29.0882 32.0529 29.0456 31.6305 28.9649 31.5506C28.8311 31.4181 28.258 31.3799 28.2778 31.5048C28.2846 31.5468 28.2846 32.1028 28.2778 32.7403L28.2657 33.8996L27.5423 33.8483C26.6476 33.785 26.736 34.1298 26.8767 31.2495C26.9928 28.8743 27.0068 28.7696 27.2403 28.5234C27.6992 28.0398 29.0816 27.9079 29.889 28.2708ZM34.298 28.2654C34.912 28.5415 34.9306 28.6133 35.0599 31.2117C35.2004 34.0349 35.2411 33.8722 34.3954 33.8722H33.7325L33.5859 31.6321H32.7897V33.8722H31.3503V31.3832C31.3503 28.9108 31.3519 28.8922 31.5942 28.6133C32.0733 28.0618 33.4509 27.8845 34.298 28.2654ZM24.2105 28.6136C24.1004 28.695 24.0321 29.003 23.9837 29.637L23.9145 30.544L24.2618 30.4751C24.7305 30.3824 24.7725 30.3238 24.8406 29.67C24.9376 28.7394 24.663 28.279 24.2105 28.6136ZM28.4419 28.844C28.2214 29.0624 28.3663 30.7156 28.6059 30.7156C29.1037 30.7156 29.2032 30.5267 29.1701 29.6444L29.1397 28.8319L28.8275 28.8016C28.6558 28.7849 28.4823 28.8041 28.4419 28.844ZM32.8583 28.8489C32.8206 28.8861 32.7897 29.3673 32.7897 29.918V30.9193H33.6123V30.1113C33.6123 28.9752 33.2846 28.4266 32.8583 28.8489Z" fill="#F9FFFF"/>
<path d="M23.3838 24.5908C25.5944 26.6782 27.4452 26.9837 27.4452 26.9837C27.4452 26.9837 25.6973 25.7618 26.0571 24.438C28.1649 25.7618 30.1185 25.4563 30.1185 25.4563C29.3474 25.4054 28.679 23.1143 28.679 23.1143C28.3192 22.0452 28.4734 20.4669 28.4734 20.4669C28.5248 19.0922 29.2959 17.6158 29.2959 17.6158C31.2495 19.194 31.558 21.8924 31.558 21.8924C31.8664 22.2488 31.6608 24.2344 31.6608 24.2344C32.1235 24.2853 33.82 21.3833 33.82 21.3833C34.5397 23.1652 33.2545 26.3218 33.2545 26.3218C36.4419 23.4198 36.2877 20.4669 36.2877 20.4669C36.3391 18.7867 35.4651 17.2085 35.4651 17.2085C35.0024 16.1902 33.7686 14.8156 33.7686 14.8156C34.3341 16.292 33.8714 17.6158 33.8714 17.6158C33.3573 19.245 32.946 19.0922 32.946 19.0922C32.8432 18.4304 32.7404 17.8703 32.7404 17.8703C32.6376 17.0557 31.5066 14.9174 31.5066 14.9174C29.9643 12.6263 30.4784 10.5389 30.4784 10.5389C30.5298 8.96062 32.6376 5.90586 32.6376 5.90586L30.684 7.2805C28.0107 9.36792 27.1367 10.6916 27.1367 10.6916C24.8747 14.1028 24.8747 15.732 24.8747 15.732C24.2064 17.0048 24.6691 20.7723 24.6691 20.7723C23.1782 19.7032 23.1782 15.732 23.1782 15.732C21.9444 19.0922 22.2014 19.0922 22.2014 19.0922C21.3789 22.1979 23.3838 24.5908 23.3838 24.5908Z" fill="#440A00"/>
<path d="M39.5779 20.6705C38.6011 23.0125 35.8764 25.7618 35.8764 25.7618C35.8764 25.7618 37.4187 23.6744 37.8299 22.0452C37.8299 22.0452 38.0356 20.8233 37.9328 20.5178C38.087 19.805 37.3158 17.9721 37.3158 17.9721C37.3158 17.8703 35.9792 15.2229 35.9792 15.2229C35.6193 14.4592 35.6193 12.83 35.6193 12.83C35.6193 12.219 36.082 10.9971 36.082 10.9971C35.8764 12.1681 37.0074 13.7973 37.0074 13.7973C37.1102 14.0519 38.5497 15.732 38.5497 15.732C39.3208 16.5975 39.5779 17.3612 39.5779 17.3612C40.349 19.194 39.5779 20.6705 39.5779 20.6705Z" fill="#440A00"/>
<path d="M25.9687 14.5101C25.9687 14.5101 26.8426 12.0663 27.4595 11.659C27.4595 11.659 29.2589 8.9097 30.9554 7.94237C30.9554 7.94237 29.8758 10.3862 30.03 11.1499C30.03 11.1499 29.9435 12.8628 30.2465 13.7358C30.3029 13.8669 30.3385 13.9501 30.3385 13.9501C30.3044 13.8868 30.2738 13.8147 30.2465 13.7358C30.0776 13.344 29.7214 12.5242 29.5673 12.219C29.5673 12.219 29.4131 10.8444 29.5673 10.0807C29.5673 10.0807 28.3849 10.9971 27.768 11.9645C27.4081 12.1681 25.9687 14.5101 25.9687 14.5101Z" fill="#FE3A00"/>
<path d="M27.9736 21.4342C27.9222 22.1979 28.3849 23.5725 28.3849 23.5725C28.3849 23.5725 27.6138 22.4015 27.5624 21.3324C27.3567 19.9068 27.6652 19.2959 27.6652 19.2959C27.5624 18.7358 29.0532 17.2085 29.0532 17.2085C28.2307 18.9395 27.9736 19.805 27.9736 19.805C27.9158 20.4625 27.9164 20.8191 27.9736 21.4342Z" fill="#FE3A00"/>
<path d="M22.7298 21.4342C22.5242 20.2632 22.8327 18.2776 22.8327 18.2776C22.8327 18.2776 22.4214 19.7541 22.4214 20.3141C22.37 21.5869 22.627 22.0452 22.627 22.0452C22.627 22.9616 23.3982 24.0307 23.3982 24.0307C22.9869 23.2161 22.7298 21.4342 22.7298 21.4342Z" fill="#FE3A00"/>
<path d="M35.2738 20.5178C35.3252 19.0922 34.6569 17.0557 34.6569 17.0557C34.6569 17.0557 35.8393 18.2776 35.7879 21.0778C35.4794 24.0817 34.3998 24.8963 34.3998 24.8963C35.2224 23.0634 35.2738 20.5178 35.2738 20.5178Z" fill="#FE3A00"/>
<path d="M38.4612 18.8377C38.307 18.1758 36.5076 15.121 36.6104 14.4083C36.6104 14.4083 38.6668 16.903 38.8725 17.463C38.8725 17.463 39.2837 17.8703 39.3866 18.8377C39.6436 19.4486 39.438 21.0269 38.8211 21.5869C38.7182 21.2815 38.8725 19.7541 38.4612 18.8377Z" fill="#FE3A00"/>
</svg>
